<svg xmlns="http://www.w3.org/2000/svg" version="1.1" xmlns:xlink="http://www.w3.org/1999/xlink" xmlns:svgjs="http://svgjs.com/svgjs" width="100" height="100" x="0" y="0" viewBox="0 0 384 384" style="enable-background:new 0 0 512 512" xml:space="preserve" class=""><g><path d="M192 384c105.863 0 192-86.129 192-192 0-18.273-2.55-36.281-7.602-53.527-2.488-8.48-11.343-13.352-19.847-10.864-8.489 2.48-13.344 11.368-10.864 19.848C349.872 161.785 352 176.777 352 192c0 88.223-71.777 160-160 160S32 280.223 32 192 103.777 32 192 32c32.063 0 62.91 9.375 89.207 27.105 7.32 4.942 17.273 3 22.207-4.32 4.938-7.328 3.012-17.273-4.316-22.21C267.496 11.264 230.465 0 192 0 86.137 0 0 86.129 0 192s86.137 192 192 192zm0 0" fill="#000000" data-original="#000000" class=""></path><path d="M356.688 36.688 192 201.368l-52.688-52.68c-6.25-6.247-16.375-6.247-22.625 0-6.246 6.25-6.246 16.375 0 22.625l64 64C183.817 238.44 187.903 240 192 240s8.184-1.559 11.313-4.688l176-176c6.246-6.25 6.246-16.374 0-22.624-6.25-6.247-16.375-6.247-22.625 0zm0 0" fill="#000000" data-original="#000000" class=""></path></g></svg>