<svg xmlns="http://www.w3.org/2000/svg" version="1.1" xmlns:xlink="http://www.w3.org/1999/xlink" xmlns:svgjs="http://svgjs.com/svgjs" width="100" height="100" x="0" y="0" viewBox="0 0 64 64" style="enable-background:new 0 0 512 512" xml:space="preserve" class=""><g><linearGradient id="a" x1="0" x2="1" y1="0" y2="0" gradientTransform="matrix(53.272 0 0 31.667 5.562 32)" gradientUnits="userSpaceOnUse"><stop stop-opacity="1" stop-color="#01b2bf" offset="0"></stop><stop stop-opacity="1" stop-color="#034a88" offset="1"></stop></linearGradient><path fill="url(#a)" d="m42.491 22.889-.001.002-1.721 13.079H13.137l.377-2.861a.834.834 0 0 0-1.653-.218l-1.316 10a.83.83 0 0 0 .826.942h5.452c.141 2.279 1.926 4 4.334 4 2.363 0 4.554-1.734 5.202-4h17.464c.141 2.279 1.926 4 4.334 4 2.363 0 4.554-1.734 5.202-4h3.324c.419 0 .772-.31.827-.724l1.316-10a.838.838 0 0 0-.031-.359l-3.142-10a.833.833 0 0 0-.795-.583H44.267l.666-5.058a.835.835 0 0 0-.827-.942H14.794a.833.833 0 0 0-.826.724l-.264 2a.834.834 0 0 0 1.653.218l.168-1.276h27.631zm6.719 16.944c1.686 0 2.869 1.373 2.647 3.058-.238 1.806-1.894 3.276-3.7 3.276-1.686 0-2.869-1.373-2.647-3.058.237-1.806 1.894-3.276 3.7-3.276zm-27 0c1.686 0 2.869 1.373 2.647 3.058-.238 1.806-1.894 3.276-3.7 3.276-1.686 0-2.869-1.373-2.647-3.058.237-1.806 1.894-3.276 3.7-3.276zM21.947 41c1.104 0 1.882.896 1.736 2-.145 1.104-1.159 2-2.263 2s-1.882-.896-1.737-2c.146-1.104 1.16-2 2.264-2zm27 0c1.104 0 1.882.896 1.736 2-.145 1.104-1.159 2-2.263 2s-1.882-.896-1.737-2c.146-1.104 1.16-2 2.264-2zm-36.03-3.364-.596 4.531h4.687l.004-.016c.654-2.258 2.841-3.984 5.198-3.984 2.408 0 4.193 1.721 4.334 4h13.409l.596-4.531zM48.33 23.833h-4.283l-2.413 18.334h2.374l.004-.015c.653-2.258 2.84-3.985 5.198-3.985 2.408 0 4.193 1.721 4.334 4h2.409l.672-5.111h-3.049a.834.834 0 1 1 0-1.666h3.269l.205-1.557h-9.086a.83.83 0 0 1-.826-.942zm1.681 0-1.097 8.334h7.951l-2.618-8.334zm-27.616 5.334h-1a.833.833 0 0 0 0 1.666h1a.833.833 0 0 0 0-1.666zm-4 0h-12a.833.833 0 0 0 0 1.666h12a.833.833 0 0 0 0-1.666zm9.304-3.1 3.89 4.479a.835.835 0 0 0 1.181.078l7.994-7.064a.834.834 0 0 0-1.103-1.249l-7.365 6.508-3.338-3.845a.835.835 0 0 0-1.176-.083.835.835 0 0 0-.083 1.176zm-20.777.766h1a.834.834 0 0 0 0-1.666h-1a.834.834 0 1 0 0 1.666zm4 0h12a.834.834 0 0 0 0-1.666h-12a.834.834 0 1 0 0 1.666zm-3.474-4h12a.834.834 0 1 0 0-1.666h-12a.833.833 0 0 0 0 1.666z" data-original="url(#a)" class=""></path></g></svg>