<svg xmlns="http://www.w3.org/2000/svg" version="1.1" xmlns:xlink="http://www.w3.org/1999/xlink" xmlns:svgjs="http://svgjs.com/svgjs" width="100" height="100" x="0" y="0" viewBox="0 0 64 64" style="enable-background:new 0 0 512 512" xml:space="preserve" class=""><g><linearGradient id="a" x1="7.019" x2="56.982" y1="32.001" y2="32.001" gradientUnits="userSpaceOnUse"><stop stop-opacity="1" stop-color="#01b2bf" offset="0"></stop><stop stop-opacity="1" stop-color="#034a88" offset="0.9903474903474904"></stop></linearGradient><path fill="url(#a)" d="M56.38 11.85a1.071 1.071 0 0 0-.7-.81l-23.39-7a1.14 1.14 0 0 0-.58 0l-23.39 7a1.09 1.09 0 0 0-.72.97C4.758 34.21 12.255 54.59 32 60c19.796-5.433 27.278-25.878 24.38-48.15zM39.74 49.58A21.591 21.591 0 0 1 32 53.74a21.58 21.58 0 0 1-7.75-4.17C16.32 43 12.06 30.34 13.13 16.53a.995.995 0 0 1 .71-.88l17.87-5.35a1.14 1.14 0 0 1 .58 0l17.87 5.35a.995.995 0 0 1 .71.88c1.07 13.81-3.2 26.47-11.13 33.05zm-1.27-1.54A21.505 21.505 0 0 1 32 51.68a21.583 21.583 0 0 1-6.48-3.65c-7.3-6.06-11.28-17.76-10.44-30.66L32 12.31l16.92 5.06c.84 12.9-3.14 24.61-10.45 30.67z" data-original="url(#a)" class=""></path></g></svg>