<svg xmlns="http://www.w3.org/2000/svg" version="1.1" xmlns:xlink="http://www.w3.org/1999/xlink" xmlns:svgjs="http://svgjs.com/svgjs" width="100" height="100" x="0" y="0" viewBox="0 0 32 32" style="enable-background:new 0 0 512 512" xml:space="preserve" class=""><g><linearGradient id="a" x1="16" x2="16" y1=".937" y2="31" gradientUnits="userSpaceOnUse"><stop stop-opacity="1" stop-color="#00bcd4" offset="0"></stop><stop stop-opacity="1" stop-color="#034a88" offset="0.9961389961389961"></stop></linearGradient><path fill="url(#a)" d="M30.908 1.88 30.802 1h-.886c-.199 0-4.87.04-6.062 3.468-.68 1.954-.147 3.601.69 4.508-.14.317-.25.657-.335 1.012a12.996 12.996 0 0 0-2.218-2.216c.482-1.717.187-4.836-2.715-6.12-1.073-.474-2.335-.715-3.75-.715-4.183 0-8.443 2.078-8.622 2.166L5.7 3.698l.916.983c.07.075.709.755 1.668 1.643C3.827 8.492 1 12.97 1 18c0 7.168 5.832 13 13 13s13-5.832 13-13c0-1.8-.393-3.545-1.089-5.152-.003-1.07.16-2.339.428-3.016.147.018.294.042.442.042 1.966 0 3.424-1.538 3.848-3.055.605-2.167.293-4.827.28-4.94zM24.12 21c-.551 0-1-.449-1-1v-1H20c-.551 0-1-.449-1-1s.449-1 1-1h4.938c.03.332.062.664.062 1 0 1.041-.155 2.045-.426 3zM15.526 2.937c1.135 0 2.124.183 2.94.544 1.528.676 1.757 2.11 1.698 3.065a12.927 12.927 0 0 0-4.001-1.363l-.326 1.974c1.258.207 2.472.646 3.57 1.268-.487.589-1.094.852-1.938.852-.458 0-.985-.081-1.567-.241-2.358-.648-5.29-3.236-6.808-4.699 1.482-.579 4.011-1.4 6.432-1.4zM3.416 15H5.12c.551 0 1 .449 1 1v3h4c1.103 0 2 .897 2 2s-.897 2-2 2H4.214A10.915 10.915 0 0 1 3 18c0-1.036.148-2.041.417-3zM14 29c-3.408 0-6.46-1.559-8.479-4h4.6c2.205 0 4-1.794 4-4s-1.795-4-4-4h-2v-1c0-1.654-1.347-3-3-3h-.927a10.93 10.93 0 0 1 5.754-5.226c1.626 1.33 3.614 2.693 5.424 3.19.754.208 1.46.313 2.097.313 1.5 0 2.7-.573 3.581-1.705A11.011 11.011 0 0 1 24.566 15H20c-1.654 0-3 1.346-3 3s1.346 3 3 3h1.292a3.001 3.001 0 0 0 2.506 1.974C21.978 26.544 18.274 29 14 29zM28.702 6.28c-.218.783-.996 1.594-1.92 1.594-.203 0-.407-.04-.603-.116-.245-.119-.977-1.08-.437-2.633.485-1.394 2.174-1.874 3.248-2.039.032.853.011 2.125-.288 3.195z" data-original="url(#a)" class=""></path></g></svg>